<svg width="120" height="120" viewBox="0 0 120 120" fill="none" xmlns="http://www.w3.org/2000/svg">
  <circle cx="60" cy="60" r="50" fill="#EFF6FF" />
  <rect x="35" y="30" width="40" height="55" rx="3" fill="#DBEAFE"/>
  <rect x="41" y="40" width="28" height="3" rx="1.5" fill="#93C5FD"/>
  <rect x="41" y="48" width="28" height="3" rx="1.5" fill="#93C5FD"/>
  <rect x="41" y="56" width="20" height="3" rx="1.5" fill="#93C5FD"/>
  <rect x="41" y="64" width="24" height="3" rx="1.5" fill="#93C5FD"/>
  <rect x="41" y="72" width="16" height="3" rx="1.5" fill="#93C5FD"/>
  <path d="M61 80L68 87L82 73" stroke="#3B82F6" stroke-width="3" stroke-linecap="round" stroke-linejoin="round"/>
  <circle cx="75" cy="65" r="15" fill="#DBEAFE" stroke="#3B82F6" stroke-width="2"/>
  <path d="M69 65H81" stroke="#1E40AF" stroke-width="2" stroke-linecap="round"/>
  <path d="M75 59V71" stroke="#1E40AF" stroke-width="2" stroke-linecap="round"/>
  <path d="M50 30L50 25" stroke="#3B82F6" stroke-width="2" stroke-linecap="round"/>
  <path d="M45 30L45 27" stroke="#3B82F6" stroke-width="2" stroke-linecap="round"/>
  <path d="M55 30L55 27" stroke="#3B82F6" stroke-width="2" stroke-linecap="round"/>
  <path d="M60 30L60 25" stroke="#3B82F6" stroke-width="2" stroke-linecap="round"/>
</svg>