<?xml version="1.0" encoding="UTF-8" standalone="no"?>
<svg width="800" height="500" viewBox="0 0 800 500" fill="none" xmlns="http://www.w3.org/2000/svg">
  <rect width="800" height="500" fill="#F8FAFC"/>
  <rect x="50" y="50" width="700" height="400" rx="10" fill="#EFF6FF"/>
  
  <!-- Background Elements -->
  <path d="M50,150 Q200,50 400,200 T750,100" stroke="#E0E7FF" stroke-width="2" fill="none"/>
  <path d="M50,220 Q200,150 400,250 T750,180" stroke="#E0E7FF" stroke-width="2" fill="none"/>
  <path d="M50,290 Q200,250 400,300 T750,260" stroke="#E0E7FF" stroke-width="2" fill="none"/>
  
  <!-- Card 1: Supply Chain -->
  <rect x="100" y="120" width="280" height="160" rx="8" fill="white" stroke="#E2E8F0" stroke-width="1"/>
  <rect x="120" y="140" width="240" height="20" rx="4" fill="#EBF5FF"/>
  <rect x="120" y="170" width="180" height="10" rx="2" fill="#EBF5FF"/>
  <rect x="120" y="190" width="220" height="10" rx="2" fill="#EBF5FF"/>
  <rect x="120" y="210" width="200" height="10" rx="2" fill="#EBF5FF"/>
  <rect x="120" y="230" width="160" height="10" rx="2" fill="#EBF5FF"/>
  <circle cx="320" cy="205" r="25" fill="#3B82F6" opacity="0.2"/>
  <path d="M310,205 L315,210 L330,195" stroke="#3B82F6" stroke-width="3" stroke-linecap="round" stroke-linejoin="round"/>
  
  <!-- Card 2: Healthcare -->
  <rect x="420" y="120" width="280" height="160" rx="8" fill="white" stroke="#E2E8F0" stroke-width="1"/>
  <rect x="440" y="140" width="240" height="20" rx="4" fill="#EBF5FF"/>
  <rect x="440" y="170" width="180" height="10" rx="2" fill="#EBF5FF"/>
  <rect x="440" y="190" width="220" height="10" rx="2" fill="#EBF5FF"/>
  <rect x="440" y="210" width="200" height="10" rx="2" fill="#EBF5FF"/>
  <rect x="440" y="230" width="160" height="10" rx="2" fill="#EBF5FF"/>
  <circle cx="640" cy="205" r="25" fill="#7C3AED" opacity="0.2"/>
  <path d="M630,205 L635,210 L650,195" stroke="#7C3AED" stroke-width="3" stroke-linecap="round" stroke-linejoin="round"/>
  
  <!-- Card 3: Regulatory -->
  <rect x="100" y="310" width="280" height="120" rx="8" fill="white" stroke="#E2E8F0" stroke-width="1"/>
  <rect x="120" y="330" width="240" height="20" rx="4" fill="#EBF5FF"/>
  <rect x="120" y="360" width="180" height="10" rx="2" fill="#EBF5FF"/>
  <rect x="120" y="380" width="220" height="10" rx="2" fill="#EBF5FF"/>
  <rect x="120" y="400" width="160" height="10" rx="2" fill="#EBF5FF"/>
  
  <!-- Performance Summary -->
  <rect x="420" y="310" width="280" height="120" rx="8" fill="white" stroke="#E2E8F0" stroke-width="1"/>
  <rect x="440" y="330" width="100" height="80" rx="4" fill="#EBF5FF"/>
  <circle cx="490" cy="370" r="30" fill="#3B82F6" opacity="0.3"/>
  <text x="490" y="375" font-family="Arial" font-size="16" font-weight="bold" fill="#3B82F6" text-anchor="middle">92%</text>
  <text x="490" y="390" font-family="Arial" font-size="10" fill="#64748B" text-anchor="middle">accuracy</text>
  
  <rect x="560" y="330" width="100" height="80" rx="4" fill="#EBF5FF"/>
  <circle cx="610" cy="370" r="30" fill="#7C3AED" opacity="0.3"/>
  <text x="610" y="375" font-family="Arial" font-size="16" font-weight="bold" fill="#7C3AED" text-anchor="middle">3wk</text>
  <text x="610" y="390" font-family="Arial" font-size="10" fill="#64748B" text-anchor="middle">lead time</text>
  
  <!-- Title &amp; Subtitle -->
  <text x="400" y="90" font-family="Arial" font-size="22" font-weight="bold" fill="#1E293B" text-anchor="middle">Case Studies: Hidden Alpha in Action</text>
  <text x="400" y="115" font-family="Arial" font-size="16" fill="#64748B" text-anchor="middle">Real-world examples of Sentimark's impact</text>
</svg>