<?xml version="1.0" encoding="UTF-8" standalone="no"?>
<svg width="120" height="120" viewBox="0 0 120 120" fill="none" xmlns="http://www.w3.org/2000/svg">
  <circle cx="60" cy="60" r="50" fill="#EFF6FF" />
  
  <!-- Clock Face -->
  <circle cx="60" cy="60" r="40" fill="white" stroke="#3B82F6" stroke-width="2" />
  
  <!-- Clock Hands -->
  <line x1="60" y1="60" x2="60" y2="30" stroke="#3B82F6" stroke-width="2" stroke-linecap="round" />
  <line x1="60" y1="60" x2="80" y2="60" stroke="#3B82F6" stroke-width="2" stroke-linecap="round" />
  
  <!-- Clock Center -->
  <circle cx="60" cy="60" r="3" fill="#3B82F6" />
  
  <!-- Hour Markers -->
  <line x1="60" y1="26" x2="60" y2="30" stroke="#3B82F6" stroke-width="2" />
  <line x1="94" y1="60" x2="90" y2="60" stroke="#3B82F6" stroke-width="2" />
  <line x1="60" y1="94" x2="60" y2="90" stroke="#3B82F6" stroke-width="2" />
  <line x1="26" y1="60" x2="30" y2="60" stroke="#3B82F6" stroke-width="2" />
  
  <!-- Warning Symbol -->
  <path d="M28 25L40 45H16L28 25Z" fill="#3B82F6" />
  <rect x="26" y="30" width="4" height="8" rx="2" fill="white" />
  <circle cx="28" cy="42" r="2" fill="white" />
  
  <!-- Magnifying Glass -->
  <circle cx="90" cy="85" r="10" fill="white" stroke="#3B82F6" stroke-width="2" />
  <line x1="95" y1="95" x2="105" y2="105" stroke="#3B82F6" stroke-width="2" stroke-linecap="round" />
  
  <!-- Arrow -->
  <path d="M35 82C35 78.6863 37.6863 76 41 76H49C52.3137 76 55 78.6863 55 82V82C55 85.3137 52.3137 88 49 88H41C37.6863 88 35 85.3137 35 82V82Z" fill="#3B82F6" />
  <path d="M50 82L65 82" stroke="#3B82F6" stroke-width="2" stroke-linecap="round" />
  <path d="M60 77L65 82L60 87" stroke="#3B82F6" stroke-width="2" stroke-linecap="round" stroke-linejoin="round" />
</svg>