<?xml version="1.0" encoding="UTF-8"?>
<svg width="120" height="120" viewBox="0 0 120 120" xmlns="http://www.w3.org/2000/svg">
  <defs>
    <linearGradient id="gradBg" x1="0%" y1="0%" x2="100%" y2="100%">
      <stop offset="0%" stop-color="#2d3e50" />
      <stop offset="100%" stop-color="#1a242f" />
    </linearGradient>
    <linearGradient id="gradAccent" x1="0%" y1="0%" x2="100%" y2="100%">
      <stop offset="0%" stop-color="#27ae60" />
      <stop offset="100%" stop-color="#2ecc71" />
    </linearGradient>
    <filter id="shadow" x="-20%" y="-20%" width="140%" height="140%">
      <feDropShadow dx="2" dy="2" stdDeviation="3" flood-opacity="0.3" />
    </filter>
  </defs>
  
  <!-- Background Circle -->
  <circle cx="60" cy="60" r="56" fill="url(#gradBg)" filter="url(#shadow)" />
  
  <!-- Chart Background -->
  <rect x="30" y="28" width="60" height="50" rx="3" fill="#ffffff" opacity="0.9" />
  
  <!-- Chart Grid Lines -->
  <g stroke="#aaaaaa" stroke-width="0.5" stroke-dasharray="2 2">
    <line x1="30" y1="38" x2="90" y2="38" />
    <line x1="30" y1="48" x2="90" y2="48" />
    <line x1="30" y1="58" x2="90" y2="58" />
    <line x1="30" y1="68" x2="90" y2="68" />
    <line x1="40" y1="28" x2="40" y2="78" />
    <line x1="50" y1="28" x2="50" y2="78" />
    <line x1="60" y1="28" x2="60" y2="78" />
    <line x1="70" y1="28" x2="70" y2="78" />
    <line x1="80" y1="28" x2="80" y2="78" />
  </g>
  
  <!-- Chart Data Lines -->
  <g>
    <!-- Market Average Line -->
    <polyline points="30,63 40,61 50,58 60,60 70,57 80,59 90,58" 
            fill="none" stroke="#3498db" stroke-width="2" />
    
    <!-- Predicted Trend Line (Dashed) -->
    <polyline points="30,54 40,52 50,48 60,40 70,38 80,33 90,30" 
            fill="none" stroke="#95a5a6" stroke-width="2" stroke-dasharray="4 2" />
    
    <!-- Alpha Line -->
    <polyline points="30,50 40,45 50,38 60,32 70,30 80,28 90,32" 
            fill="none" stroke="#e74c3c" stroke-width="2.5" />
  </g>
  
  <!-- Action Point -->
  <g>
    <circle cx="70" cy="30" r="5" fill="url(#gradAccent)" stroke="#ffffff" stroke-width="1.5" />
    <circle cx="70" cy="30" r="8" fill="none" stroke="#ffffff" stroke-width="0.8" stroke-opacity="0.6" />
  </g>
  
  <!-- Decision Arrow -->
  <g transform="translate(75, 40)">
    <path d="M0,0 L20,0 L15,5 M20,0 L15,-5" fill="none" stroke="url(#gradAccent)" stroke-width="3" stroke-linecap="round" stroke-linejoin="round" />
  </g>
  
  <!-- Decision Box -->
  <rect x="40" y="80" width="40" height="15" rx="3" fill="url(#gradAccent)" stroke="#ffffff" stroke-width="1.5" />
  <g fill="#ffffff" text-anchor="middle">
    <!-- Simplified "ACTION" text representation -->
    <rect x="50" y="85" width="2" height="6" />
    <rect x="54" y="85" width="2" height="6" />
    <rect x="50" y="85" width="6" height="2" />
    <rect x="50" y="89" width="6" height="2" />
    
    <rect x="58" y="85" width="2" height="6" />
    <rect x="62" y="85" width="2" height="6" />
    <rect x="58" y="85" width="6" height="2" />
    
    <rect x="66" y="85" width="2" height="6" />
    <rect x="66" y="85" width="6" height="2" />
    <rect x="66" y="89" width="6" height="2" />
    <rect x="70" y="87" width="2" height="4" />
  </g>
</svg>