<?xml version="1.0" encoding="UTF-8"?>
<svg width="120" height="120" viewBox="0 0 120 120" xmlns="http://www.w3.org/2000/svg">
  <defs>
    <linearGradient id="gradBg" x1="0%" y1="0%" x2="100%" y2="100%">
      <stop offset="0%" stop-color="#2d3e50" />
      <stop offset="100%" stop-color="#1a242f" />
    </linearGradient>
    <linearGradient id="gradCircle" x1="0%" y1="0%" x2="100%" y2="100%">
      <stop offset="0%" stop-color="#3498db" />
      <stop offset="100%" stop-color="#2980b9" />
    </linearGradient>
    <filter id="shadow" x="-20%" y="-20%" width="140%" height="140%">
      <feDropShadow dx="2" dy="2" stdDeviation="3" flood-opacity="0.3" />
    </filter>
  </defs>
  
  <!-- Background Circle -->
  <circle cx="60" cy="60" r="56" fill="url(#gradBg)" filter="url(#shadow)" />
  
  <!-- Data Sources Circle -->
  <g transform="translate(60, 60)">
    <!-- Circular Grid -->
    <circle cx="0" cy="0" r="44" fill="none" stroke="#34495e" stroke-width="1" stroke-dasharray="2 3" />
    <circle cx="0" cy="0" r="32" fill="none" stroke="#34495e" stroke-width="1" stroke-dasharray="2 3" />
    <circle cx="0" cy="0" r="20" fill="none" stroke="#34495e" stroke-width="1" stroke-dasharray="2 3" />
    
    <!-- Data Source Nodes -->
    <circle cx="0" cy="-38" r="8" fill="#e74c3c" stroke="#ffffff" stroke-width="1.5" />
    <circle cx="36" cy="-12" r="8" fill="#3498db" stroke="#ffffff" stroke-width="1.5" />
    <circle cx="22" cy="32" r="8" fill="#2ecc71" stroke="#ffffff" stroke-width="1.5" />
    <circle cx="-22" cy="32" r="8" fill="#f39c12" stroke="#ffffff" stroke-width="1.5" />
    <circle cx="-36" cy="-12" r="8" fill="#9b59b6" stroke="#ffffff" stroke-width="1.5" />
    
    <!-- Central Hub -->
    <circle cx="0" cy="0" r="14" fill="url(#gradCircle)" stroke="#ffffff" stroke-width="2" />
    
    <!-- Connection Lines -->
    <line x1="0" y1="-38" x2="0" y2="-14" stroke="#e74c3c" stroke-width="2" stroke-opacity="0.7" />
    <line x1="36" y1="-12" x2="14" y2="-4" stroke="#3498db" stroke-width="2" stroke-opacity="0.7" />
    <line x1="22" y1="32" x2="8" y2="12" stroke="#2ecc71" stroke-width="2" stroke-opacity="0.7" />
    <line x1="-22" y1="32" x2="-8" y2="12" stroke="#f39c12" stroke-width="2" stroke-opacity="0.7" />
    <line x1="-36" y1="-12" x2="-14" y2="-4" stroke="#9b59b6" stroke-width="2" stroke-opacity="0.7" />
    
    <!-- Pulse Animation Rings (static in SVG) -->
    <circle cx="0" cy="0" r="18" fill="none" stroke="#ffffff" stroke-width="1" stroke-opacity="0.6" />
    <circle cx="0" cy="0" r="22" fill="none" stroke="#ffffff" stroke-width="0.75" stroke-opacity="0.4" />
    <circle cx="0" cy="0" r="26" fill="none" stroke="#ffffff" stroke-width="0.5" stroke-opacity="0.2" />
    
    <!-- Central Icon -->
    <g fill="#ffffff">
      <rect x="-7" y="-4" width="14" height="8" rx="1" />
      <rect x="-5" y="-6" width="10" height="2" rx="1" />
      <rect x="-3" y="4" width="6" height="4" rx="1" />
    </g>
  </g>
</svg>